<svg xmlns="http://www.w3.org/2000/svg" viewBox="0 0 120 120" fill="none">
  <defs>
    <linearGradient id="g" x1="0" y1="0" x2="1" y2="1">
      <stop offset="0" stop-color="#d39b6a"/>
      <stop offset="1" stop-color="#8b4513"/>
    </linearGradient>
  </defs>
  <g stroke="url(#g)" stroke-width="1.6" stroke-linecap="round" stroke-linejoin="round" fill="none">
    <circle cx="60" cy="60" r="4" fill="url(#g)"/>
    <g transform="translate(60 60)">
      <g>
        <path d="M0 -6 C -10 -18, -10 -36, 0 -48 C 10 -36, 10 -18, 0 -6 Z"/>
        <circle cx="0" cy="-26" r="1.2" fill="url(#g)"/>
      </g>
      <g transform="rotate(60)">
        <path d="M0 -6 C -10 -18, -10 -36, 0 -48 C 10 -36, 10 -18, 0 -6 Z"/>
        <circle cx="0" cy="-26" r="1.2" fill="url(#g)"/>
      </g>
      <g transform="rotate(120)">
        <path d="M0 -6 C -10 -18, -10 -36, 0 -48 C 10 -36, 10 -18, 0 -6 Z"/>
        <circle cx="0" cy="-26" r="1.2" fill="url(#g)"/>
      </g>
      <g transform="rotate(180)">
        <path d="M0 -6 C -10 -18, -10 -36, 0 -48 C 10 -36, 10 -18, 0 -6 Z"/>
        <circle cx="0" cy="-26" r="1.2" fill="url(#g)"/>
      </g>
      <g transform="rotate(240)">
        <path d="M0 -6 C -10 -18, -10 -36, 0 -48 C 10 -36, 10 -18, 0 -6 Z"/>
        <circle cx="0" cy="-26" r="1.2" fill="url(#g)"/>
      </g>
      <g transform="rotate(300)">
        <path d="M0 -6 C -10 -18, -10 -36, 0 -48 C 10 -36, 10 -18, 0 -6 Z"/>
        <circle cx="0" cy="-26" r="1.2" fill="url(#g)"/>
      </g>
    </g>
  </g>
</svg>
