<svg xmlns="http://www.w3.org/2000/svg" width="100" height="100" viewBox="0 0 100 100">
  <g fill="currentColor" fill-rule="evenodd">
    <path d="M 50 20 C 58 30, 60 46, 50 60 C 40 46, 42 30, 50 20 Z"/>
    <path d="M 30 28 C 42 32, 50 46, 50 60 C 36 56, 26 44, 30 28 Z"/>
    <path d="M 70 28 C 58 32, 50 46, 50 60 C 64 56, 74 44, 70 28 Z"/>
    <path d="M 14 48 C 28 46, 44 52, 50 60 C 36 64, 22 60, 14 48 Z"/>
    <path d="M 86 48 C 72 46, 56 52, 50 60 C 64 64, 78 60, 86 48 Z"/>
  </g>
  <g fill="none" stroke="currentColor" stroke-width="1.5">
    <path d="M 50 30 v 28"/>
    <path d="M 38 38 q 6 10 12 22"/>
    <path d="M 62 38 q -6 10 -12 22"/>
  </g>
  <circle cx="50" cy="62" r="3" fill="currentColor"/>
  <circle cx="50" cy="74" r="2" fill="currentColor"/>
  <circle cx="50" cy="84" r="1.5" fill="currentColor"/>
</svg>
