<svg xmlns="http://www.w3.org/2000/svg" width="100" height="100" viewBox="0 0 100 100">
  <g fill="currentColor" fill-rule="evenodd">
    <path d="
      M 50 8
      C 70 8, 86 22, 88 44
      C 90 66, 76 86, 56 90
      C 44 92, 32 86, 30 76
      C 28 66, 38 58, 50 58
      C 62 58, 70 50, 70 38
      C 70 26, 60 18, 50 18
      Z
    "/>
    <circle cx="50" cy="38" r="4"/>
    <circle cx="42" cy="74" r="2.5"/>
    <circle cx="56" cy="80" r="2"/>
    <path d="M 50 24 q -8 6 -8 14 q 0 8 8 14 q 8 -6 8 -14 q 0 -8 -8 -14 z" fill="none" stroke="currentColor" stroke-width="1.5"/>
  </g>
</svg>
