<svg xmlns="http://www.w3.org/2000/svg" width="100" height="100" viewBox="0 0 100 100">
  <g fill="none" stroke="currentColor" stroke-width="2.5" stroke-linecap="round">
    <path d="M 10 80 C 25 70, 35 55, 45 50 C 60 42, 70 50, 70 60 C 70 70, 60 75, 55 70 C 50 65, 55 58, 62 58"/>
    <path d="M 30 70 q -5 -8 0 -14" />
    <path d="M 38 60 q -6 -10 -2 -18" />
    <path d="M 50 50 q 0 -10 6 -16" />
  </g>
  <g fill="currentColor">
    <ellipse cx="22" cy="64" rx="3" ry="5" transform="rotate(-30 22 64)"/>
    <ellipse cx="34" cy="50" rx="3" ry="5" transform="rotate(-20 34 50)"/>
    <ellipse cx="48" cy="38" rx="3" ry="5" transform="rotate(-10 48 38)"/>
    <circle cx="64" cy="56" r="2"/>
  </g>
</svg>
